<svg xmlns="http://www.w3.org/2000/svg" width="113.279" height="110.747" viewBox="0 0 113.279 110.747"><g transform="translate(-216.575 -131.675) rotate(-51)"><g transform="translate(1.432 377.816)"><path d="M-1.005,356.468a2.373,2.373,0,0,1-2.372,2.373,2.372,2.372,0,0,1-2.372-2.373A2.371,2.371,0,0,1-3.377,354.1,2.372,2.372,0,0,1-1.005,356.468Z" transform="translate(5.749 -354.096)" fill="#28e1ff"/><path d="M10.585,356.468A2.372,2.372,0,1,1,8.213,354.1,2.372,2.372,0,0,1,10.585,356.468Z" transform="translate(9.339 -354.096)" fill="#28e1ff"/><path d="M22.176,356.468A2.372,2.372,0,1,1,19.8,354.1,2.373,2.373,0,0,1,22.176,356.468Z" transform="translate(12.93 -354.096)" fill="#28e1ff"/><path d="M33.767,356.468a2.372,2.372,0,1,1-2.372-2.372A2.373,2.373,0,0,1,33.767,356.468Z" transform="translate(16.52 -354.096)" fill="#28e1ff"/></g><g transform="translate(-13.75 363.489)"><path d="M-12.6,345.529a2.372,2.372,0,0,1-2.372,2.372,2.372,2.372,0,0,1-2.372-2.372,2.372,2.372,0,0,1,2.372-2.372A2.372,2.372,0,0,1-12.6,345.529Z" transform="translate(17.34 -343.157)" fill="#28e1ff"/><path d="M-1.005,345.529A2.372,2.372,0,0,1-3.377,347.9a2.371,2.371,0,0,1-2.372-2.372,2.371,2.371,0,0,1,2.372-2.372A2.372,2.372,0,0,1-1.005,345.529Z" transform="translate(20.93 -343.157)" fill="#28e1ff"/><path d="M10.585,345.529a2.372,2.372,0,1,1-2.372-2.372A2.371,2.371,0,0,1,10.585,345.529Z" transform="translate(24.521 -343.157)" fill="#28e1ff"/><path d="M22.176,345.529a2.372,2.372,0,1,1-2.372-2.372A2.372,2.372,0,0,1,22.176,345.529Z" transform="translate(28.111 -343.157)" fill="#28e1ff"/><path d="M33.767,345.529a2.372,2.372,0,1,1-2.372-2.372A2.372,2.372,0,0,1,33.767,345.529Z" transform="translate(31.701 -343.157)" fill="#28e1ff"/><path d="M45.358,345.529a2.372,2.372,0,1,1-2.372-2.372A2.372,2.372,0,0,1,45.358,345.529Z" transform="translate(35.292 -343.157)" fill="#28e1ff"/></g><g transform="translate(-13.75 349.16)"><path d="M-12.6,334.59a2.372,2.372,0,0,1-2.372,2.372,2.372,2.372,0,0,1-2.372-2.372,2.373,2.373,0,0,1,2.372-2.373A2.373,2.373,0,0,1-12.6,334.59Z" transform="translate(17.34 -332.217)" fill="#28e1ff"/><path d="M-1.005,334.59a2.372,2.372,0,0,1-2.372,2.372,2.371,2.371,0,0,1-2.372-2.372,2.372,2.372,0,0,1,2.372-2.373A2.373,2.373,0,0,1-1.005,334.59Z" transform="translate(20.93 -332.217)" fill="#28e1ff"/><path d="M10.585,334.59a2.372,2.372,0,1,1-2.372-2.373A2.371,2.371,0,0,1,10.585,334.59Z" transform="translate(24.521 -332.217)" fill="#28e1ff"/><path d="M22.176,334.59a2.372,2.372,0,1,1-2.372-2.373A2.372,2.372,0,0,1,22.176,334.59Z" transform="translate(28.111 -332.217)" fill="#28e1ff"/><path d="M33.767,334.59a2.372,2.372,0,1,1-2.372-2.373A2.372,2.372,0,0,1,33.767,334.59Z" transform="translate(31.701 -332.217)" fill="#28e1ff"/><path d="M45.358,334.59a2.372,2.372,0,1,1-2.372-2.373A2.372,2.372,0,0,1,45.358,334.59Z" transform="translate(35.292 -332.217)" fill="#28e1ff"/></g><g transform="translate(-28.931 334.833)"><path d="M-24.187,323.65a2.371,2.371,0,0,1-2.372,2.372,2.372,2.372,0,0,1-2.372-2.372,2.372,2.372,0,0,1,2.372-2.372A2.371,2.371,0,0,1-24.187,323.65Z" transform="translate(28.931 -321.278)" fill="#28e1ff"/><path d="M-12.6,323.65a2.372,2.372,0,0,1-2.372,2.372,2.372,2.372,0,0,1-2.372-2.372,2.372,2.372,0,0,1,2.372-2.372A2.372,2.372,0,0,1-12.6,323.65Z" transform="translate(32.521 -321.278)" fill="#28e1ff"/><path d="M-1.005,323.65a2.372,2.372,0,0,1-2.372,2.372,2.371,2.371,0,0,1-2.372-2.372,2.371,2.371,0,0,1,2.372-2.372A2.372,2.372,0,0,1-1.005,323.65Z" transform="translate(36.112 -321.278)" fill="#28e1ff"/><path d="M10.585,323.65a2.372,2.372,0,1,1-2.372-2.372A2.371,2.371,0,0,1,10.585,323.65Z" transform="translate(39.702 -321.278)" fill="#28e1ff"/><path d="M22.176,323.65a2.372,2.372,0,1,1-2.372-2.372A2.372,2.372,0,0,1,22.176,323.65Z" transform="translate(43.292 -321.278)" fill="#28e1ff"/><path d="M33.767,323.65a2.372,2.372,0,1,1-2.372-2.372A2.372,2.372,0,0,1,33.767,323.65Z" transform="translate(46.883 -321.278)" fill="#28e1ff"/><path d="M45.358,323.65a2.372,2.372,0,1,1-2.372-2.372A2.372,2.372,0,0,1,45.358,323.65Z" transform="translate(50.473 -321.278)" fill="#28e1ff"/><path d="M56.948,323.65a2.372,2.372,0,1,1-2.372-2.372A2.371,2.371,0,0,1,56.948,323.65Z" transform="translate(54.063 -321.278)" fill="#28e1ff"/></g><g transform="translate(-28.931 320.504)"><path d="M-24.187,312.71a2.372,2.372,0,0,1-2.372,2.373,2.373,2.373,0,0,1-2.372-2.373,2.372,2.372,0,0,1,2.372-2.372A2.371,2.371,0,0,1-24.187,312.71Z" transform="translate(28.931 -310.338)" fill="#28e1ff"/><path d="M-12.6,312.71a2.373,2.373,0,0,1-2.372,2.373,2.373,2.373,0,0,1-2.372-2.373,2.372,2.372,0,0,1,2.372-2.372A2.372,2.372,0,0,1-12.6,312.71Z" transform="translate(32.521 -310.338)" fill="#28e1ff"/><path d="M-1.005,312.71a2.373,2.373,0,0,1-2.372,2.373,2.372,2.372,0,0,1-2.372-2.373,2.371,2.371,0,0,1,2.372-2.372A2.372,2.372,0,0,1-1.005,312.71Z" transform="translate(36.112 -310.338)" fill="#28e1ff"/><path d="M10.585,312.71a2.372,2.372,0,1,1-2.372-2.372A2.372,2.372,0,0,1,10.585,312.71Z" transform="translate(39.702 -310.338)" fill="#28e1ff"/><path d="M22.176,312.71a2.372,2.372,0,1,1-2.372-2.372A2.373,2.373,0,0,1,22.176,312.71Z" transform="translate(43.292 -310.338)" fill="#28e1ff"/><path d="M33.767,312.71a2.372,2.372,0,1,1-2.372-2.372A2.373,2.373,0,0,1,33.767,312.71Z" transform="translate(46.883 -310.338)" fill="#28e1ff"/><path d="M45.358,312.71a2.372,2.372,0,1,1-2.372-2.372A2.373,2.373,0,0,1,45.358,312.71Z" transform="translate(50.473 -310.338)" fill="#28e1ff"/><path d="M56.948,312.71a2.372,2.372,0,1,1-2.372-2.372A2.372,2.372,0,0,1,56.948,312.71Z" transform="translate(54.063 -310.338)" fill="#28e1ff"/></g><g transform="translate(-13.75 306.176)"><path d="M-12.6,301.771a2.372,2.372,0,0,1-2.372,2.372,2.372,2.372,0,0,1-2.372-2.372,2.372,2.372,0,0,1,2.372-2.372A2.372,2.372,0,0,1-12.6,301.771Z" transform="translate(17.34 -299.399)" fill="#28e1ff"/><path d="M-1.005,301.771a2.372,2.372,0,0,1-2.372,2.372,2.371,2.371,0,0,1-2.372-2.372A2.371,2.371,0,0,1-3.377,299.4,2.372,2.372,0,0,1-1.005,301.771Z" transform="translate(20.93 -299.399)" fill="#28e1ff"/><path d="M10.585,301.771A2.372,2.372,0,1,1,8.213,299.4,2.371,2.371,0,0,1,10.585,301.771Z" transform="translate(24.521 -299.399)" fill="#28e1ff"/><path d="M22.176,301.771A2.372,2.372,0,1,1,19.8,299.4,2.372,2.372,0,0,1,22.176,301.771Z" transform="translate(28.111 -299.399)" fill="#28e1ff"/><path d="M33.767,301.771a2.372,2.372,0,1,1-2.372-2.372A2.372,2.372,0,0,1,33.767,301.771Z" transform="translate(31.701 -299.399)" fill="#28e1ff"/><path d="M45.358,301.771a2.372,2.372,0,1,1-2.372-2.372A2.372,2.372,0,0,1,45.358,301.771Z" transform="translate(35.292 -299.399)" fill="#28e1ff"/></g><g transform="translate(-13.75 291.849)"><path d="M-12.6,290.832a2.372,2.372,0,0,1-2.372,2.372,2.372,2.372,0,0,1-2.372-2.372,2.371,2.371,0,0,1,2.372-2.372A2.371,2.371,0,0,1-12.6,290.832Z" transform="translate(17.34 -288.46)" fill="#28e1ff"/><path d="M-1.005,290.832A2.372,2.372,0,0,1-3.377,293.2a2.371,2.371,0,0,1-2.372-2.372,2.371,2.371,0,0,1,2.372-2.372A2.371,2.371,0,0,1-1.005,290.832Z" transform="translate(20.93 -288.46)" fill="#28e1ff"/><path d="M10.585,290.832a2.372,2.372,0,1,1-2.372-2.372A2.371,2.371,0,0,1,10.585,290.832Z" transform="translate(24.521 -288.46)" fill="#28e1ff"/><path d="M22.176,290.832A2.372,2.372,0,1,1,19.8,288.46,2.372,2.372,0,0,1,22.176,290.832Z" transform="translate(28.111 -288.46)" fill="#28e1ff"/><path d="M33.767,290.832a2.372,2.372,0,1,1-2.372-2.372A2.372,2.372,0,0,1,33.767,290.832Z" transform="translate(31.701 -288.46)" fill="#28e1ff"/><path d="M45.358,290.832a2.372,2.372,0,1,1-2.372-2.372A2.372,2.372,0,0,1,45.358,290.832Z" transform="translate(35.292 -288.46)" fill="#28e1ff"/></g><g transform="translate(1.432 277.52)"><path d="M-1.005,279.892a2.372,2.372,0,0,1-2.372,2.372,2.371,2.371,0,0,1-2.372-2.372,2.371,2.371,0,0,1,2.372-2.372A2.372,2.372,0,0,1-1.005,279.892Z" transform="translate(5.749 -277.52)" fill="#28e1ff"/><path d="M10.585,279.892a2.372,2.372,0,1,1-2.372-2.372A2.371,2.371,0,0,1,10.585,279.892Z" transform="translate(9.339 -277.52)" fill="#28e1ff"/><path d="M22.176,279.892A2.372,2.372,0,1,1,19.8,277.52,2.372,2.372,0,0,1,22.176,279.892Z" transform="translate(12.93 -277.52)" fill="#28e1ff"/><path d="M33.767,279.892a2.372,2.372,0,1,1-2.372-2.372A2.372,2.372,0,0,1,33.767,279.892Z" transform="translate(16.52 -277.52)" fill="#28e1ff"/></g></g></svg>