<svg xmlns="http://www.w3.org/2000/svg" width="243.136" height="88.654" viewBox="0 0 243.136 88.654"><g transform="translate(-65.822 -16.258)"><path d="M65.822,18.069a1.811,1.811,0,1,0,1.81-1.811A1.81,1.81,0,0,0,65.822,18.069Z" fill="#0025db"/><path d="M85.782,18.069a1.81,1.81,0,1,0,1.81-1.811A1.81,1.81,0,0,0,85.782,18.069Z" fill="#0025db"/><path d="M105.741,18.069a1.811,1.811,0,1,0,1.811-1.811A1.81,1.81,0,0,0,105.741,18.069Z" fill="#0025db"/><path d="M125.7,18.069a1.811,1.811,0,1,0,1.81-1.811A1.81,1.81,0,0,0,125.7,18.069Z" fill="#0025db"/><path d="M145.66,18.069a1.811,1.811,0,1,0,1.811-1.811A1.81,1.81,0,0,0,145.66,18.069Z" fill="#0025db"/><path d="M165.62,18.069a1.811,1.811,0,1,0,1.81-1.811A1.81,1.81,0,0,0,165.62,18.069Z" fill="#0025db"/><path d="M185.58,18.069a1.81,1.81,0,1,0,1.81-1.811A1.81,1.81,0,0,0,185.58,18.069Z" fill="#0025db"/><path d="M205.539,18.069a1.811,1.811,0,1,0,1.811-1.811A1.81,1.81,0,0,0,205.539,18.069Z" fill="#0025db"/><path d="M225.5,18.069a1.81,1.81,0,1,0,1.81-1.811A1.81,1.81,0,0,0,225.5,18.069Z" fill="#0025db"/><path d="M245.458,18.069a1.811,1.811,0,1,0,1.811-1.811A1.81,1.81,0,0,0,245.458,18.069Z" fill="#0025db"/><path d="M265.418,18.069a1.811,1.811,0,1,0,1.81-1.811A1.81,1.81,0,0,0,265.418,18.069Z" fill="#0025db"/><path d="M285.378,18.069a1.81,1.81,0,1,0,1.81-1.811A1.81,1.81,0,0,0,285.378,18.069Z" fill="#0025db"/><path d="M305.337,18.069a1.811,1.811,0,1,0,1.81-1.811A1.81,1.81,0,0,0,305.337,18.069Z" fill="#0025db"/><path d="M65.822,35.075a1.811,1.811,0,1,0,1.81-1.81A1.811,1.811,0,0,0,65.822,35.075Z" fill="#0025db"/><path d="M85.782,35.075a1.81,1.81,0,1,0,1.81-1.81A1.81,1.81,0,0,0,85.782,35.075Z" fill="#0025db"/><path d="M105.741,35.075a1.811,1.811,0,1,0,1.811-1.81A1.811,1.811,0,0,0,105.741,35.075Z" fill="#0025db"/><path d="M125.7,35.075a1.811,1.811,0,1,0,1.81-1.81A1.81,1.81,0,0,0,125.7,35.075Z" fill="#0025db"/><path d="M145.66,35.075a1.811,1.811,0,1,0,1.811-1.81A1.811,1.811,0,0,0,145.66,35.075Z" fill="#0025db"/><path d="M165.62,35.075a1.811,1.811,0,1,0,1.81-1.81A1.811,1.811,0,0,0,165.62,35.075Z" fill="#0025db"/><path d="M185.58,35.075a1.81,1.81,0,1,0,1.81-1.81A1.81,1.81,0,0,0,185.58,35.075Z" fill="#0025db"/><path d="M205.539,35.075a1.811,1.811,0,1,0,1.811-1.81A1.811,1.811,0,0,0,205.539,35.075Z" fill="#0025db"/><path d="M225.5,35.075a1.81,1.81,0,1,0,1.81-1.81A1.81,1.81,0,0,0,225.5,35.075Z" fill="#0025db"/><path d="M245.458,35.075a1.811,1.811,0,1,0,1.811-1.81A1.811,1.811,0,0,0,245.458,35.075Z" fill="#0025db"/><path d="M265.418,35.075a1.811,1.811,0,1,0,1.81-1.81A1.81,1.81,0,0,0,265.418,35.075Z" fill="#0025db"/><path d="M285.378,35.075a1.81,1.81,0,1,0,1.81-1.81A1.81,1.81,0,0,0,285.378,35.075Z" fill="#0025db"/><path d="M305.337,35.075a1.811,1.811,0,1,0,1.81-1.81A1.811,1.811,0,0,0,305.337,35.075Z" fill="#0025db"/><path d="M65.822,52.082a1.811,1.811,0,1,0,1.81-1.811A1.81,1.81,0,0,0,65.822,52.082Z" fill="#0025db"/><path d="M85.782,52.082a1.81,1.81,0,1,0,1.81-1.811A1.81,1.81,0,0,0,85.782,52.082Z" fill="#0025db"/><path d="M105.741,52.082a1.811,1.811,0,1,0,1.811-1.811A1.81,1.81,0,0,0,105.741,52.082Z" fill="#0025db"/><path d="M125.7,52.082a1.811,1.811,0,1,0,1.81-1.811A1.81,1.81,0,0,0,125.7,52.082Z" fill="#0025db"/><path d="M145.66,52.082a1.811,1.811,0,1,0,1.811-1.811A1.81,1.81,0,0,0,145.66,52.082Z" fill="#0025db"/><path d="M165.62,52.082a1.811,1.811,0,1,0,1.81-1.811A1.81,1.81,0,0,0,165.62,52.082Z" fill="#0025db"/><path d="M185.58,52.082a1.81,1.81,0,1,0,1.81-1.811A1.81,1.81,0,0,0,185.58,52.082Z" fill="#0025db"/><path d="M205.539,52.082a1.811,1.811,0,1,0,1.811-1.811A1.81,1.81,0,0,0,205.539,52.082Z" fill="#0025db"/><path d="M225.5,52.082a1.81,1.81,0,1,0,1.81-1.811A1.81,1.81,0,0,0,225.5,52.082Z" fill="#0025db"/><path d="M245.458,52.082a1.811,1.811,0,1,0,1.811-1.811A1.81,1.81,0,0,0,245.458,52.082Z" fill="#0025db"/><path d="M265.418,52.082a1.811,1.811,0,1,0,1.81-1.811A1.81,1.81,0,0,0,265.418,52.082Z" fill="#0025db"/><path d="M285.378,52.082a1.81,1.81,0,1,0,1.81-1.811A1.81,1.81,0,0,0,285.378,52.082Z" fill="#0025db"/><path d="M305.337,52.082a1.811,1.811,0,1,0,1.81-1.811A1.81,1.81,0,0,0,305.337,52.082Z" fill="#0025db"/><path d="M65.822,69.088a1.811,1.811,0,1,0,1.81-1.81A1.811,1.811,0,0,0,65.822,69.088Z" fill="#0025db"/><path d="M85.782,69.088a1.81,1.81,0,1,0,1.81-1.81A1.81,1.81,0,0,0,85.782,69.088Z" fill="#0025db"/><path d="M105.741,69.088a1.811,1.811,0,1,0,1.811-1.81A1.811,1.811,0,0,0,105.741,69.088Z" fill="#0025db"/><path d="M125.7,69.088a1.811,1.811,0,1,0,1.81-1.81A1.81,1.81,0,0,0,125.7,69.088Z" fill="#0025db"/><path d="M145.66,69.088a1.811,1.811,0,1,0,1.811-1.81A1.811,1.811,0,0,0,145.66,69.088Z" fill="#0025db"/><path d="M165.62,69.088a1.811,1.811,0,1,0,1.81-1.81A1.811,1.811,0,0,0,165.62,69.088Z" fill="#0025db"/><path d="M185.58,69.088a1.81,1.81,0,1,0,1.81-1.81A1.81,1.81,0,0,0,185.58,69.088Z" fill="#0025db"/><path d="M205.539,69.088a1.811,1.811,0,1,0,1.811-1.81A1.811,1.811,0,0,0,205.539,69.088Z" fill="#0025db"/><path d="M225.5,69.088a1.81,1.81,0,1,0,1.81-1.81A1.81,1.81,0,0,0,225.5,69.088Z" fill="#0025db"/><path d="M245.458,69.088a1.811,1.811,0,1,0,1.811-1.81A1.811,1.811,0,0,0,245.458,69.088Z" fill="#0025db"/><path d="M265.418,69.088a1.811,1.811,0,1,0,1.81-1.81A1.81,1.81,0,0,0,265.418,69.088Z" fill="#0025db"/><path d="M285.378,69.088a1.81,1.81,0,1,0,1.81-1.81A1.81,1.81,0,0,0,285.378,69.088Z" fill="#0025db"/><path d="M305.337,69.088a1.811,1.811,0,1,0,1.81-1.81A1.811,1.811,0,0,0,305.337,69.088Z" fill="#0025db"/><path d="M65.822,86.1a1.811,1.811,0,1,0,1.81-1.811A1.811,1.811,0,0,0,65.822,86.1Z" fill="#0025db"/><path d="M85.782,86.1a1.81,1.81,0,1,0,1.81-1.811A1.81,1.81,0,0,0,85.782,86.1Z" fill="#0025db"/><path d="M105.741,86.1a1.811,1.811,0,1,0,1.811-1.811A1.811,1.811,0,0,0,105.741,86.1Z" fill="#0025db"/><circle cx="1.81" cy="1.81" r="1.81" transform="translate(125.701 84.284)" fill="#0025db"/><circle cx="1.81" cy="1.81" r="1.81" transform="translate(145.66 84.284)" fill="#0025db"/><circle cx="1.81" cy="1.81" r="1.81" transform="translate(165.62 84.284)" fill="#0025db"/><path d="M185.58,86.1a1.81,1.81,0,1,0,1.81-1.811A1.81,1.81,0,0,0,185.58,86.1Z" fill="#0025db"/><path d="M205.539,86.1a1.811,1.811,0,1,0,1.811-1.811A1.811,1.811,0,0,0,205.539,86.1Z" fill="#0025db"/><path d="M225.5,86.1a1.81,1.81,0,1,0,1.81-1.811A1.81,1.81,0,0,0,225.5,86.1Z" fill="#0025db"/><path d="M245.458,86.1a1.811,1.811,0,1,0,1.811-1.811A1.811,1.811,0,0,0,245.458,86.1Z" fill="#0025db"/><path d="M265.418,86.1a1.811,1.811,0,1,0,1.81-1.811A1.81,1.81,0,0,0,265.418,86.1Z" fill="#0025db"/><path d="M285.378,86.1a1.81,1.81,0,1,0,1.81-1.811A1.81,1.81,0,0,0,285.378,86.1Z" fill="#0025db"/><path d="M305.337,86.1a1.811,1.811,0,1,0,1.81-1.811A1.811,1.811,0,0,0,305.337,86.1Z" fill="#0025db"/><path d="M65.822,103.1a1.811,1.811,0,1,0,1.81-1.81A1.811,1.811,0,0,0,65.822,103.1Z" fill="#0025db"/><path d="M85.782,103.1a1.81,1.81,0,1,0,1.81-1.81A1.81,1.81,0,0,0,85.782,103.1Z" fill="#0025db"/><path d="M105.741,103.1a1.811,1.811,0,1,0,1.811-1.81A1.811,1.811,0,0,0,105.741,103.1Z" fill="#0025db"/><path d="M125.7,103.1a1.811,1.811,0,1,0,1.81-1.81A1.81,1.81,0,0,0,125.7,103.1Z" fill="#0025db"/><path d="M145.66,103.1a1.811,1.811,0,1,0,1.811-1.81A1.811,1.811,0,0,0,145.66,103.1Z" fill="#0025db"/><path d="M165.62,103.1a1.811,1.811,0,1,0,1.81-1.81A1.811,1.811,0,0,0,165.62,103.1Z" fill="#0025db"/><path d="M185.58,103.1a1.81,1.81,0,1,0,1.81-1.81A1.81,1.81,0,0,0,185.58,103.1Z" fill="#0025db"/><path d="M205.539,103.1a1.811,1.811,0,1,0,1.811-1.81A1.811,1.811,0,0,0,205.539,103.1Z" fill="#0025db"/><path d="M225.5,103.1a1.81,1.81,0,1,0,1.81-1.81A1.81,1.81,0,0,0,225.5,103.1Z" fill="#0025db"/><path d="M245.458,103.1a1.811,1.811,0,1,0,1.811-1.81A1.811,1.811,0,0,0,245.458,103.1Z" fill="#0025db"/><path d="M265.418,103.1a1.811,1.811,0,1,0,1.81-1.81A1.81,1.81,0,0,0,265.418,103.1Z" fill="#0025db"/><path d="M285.378,103.1a1.81,1.81,0,1,0,1.81-1.81A1.81,1.81,0,0,0,285.378,103.1Z" fill="#0025db"/><path d="M305.337,103.1a1.811,1.811,0,1,0,1.81-1.81A1.811,1.811,0,0,0,305.337,103.1Z" fill="#0025db"/></g></svg>